<!DOCTYPE svg PUBLIC "-//W3C//DTD SVG 20010904//EN" "http://www.w3.org/TR/2001/REC-SVG-20010904/DTD/svg10.dtd">
<svg version="1.0" xmlns="http://www.w3.org/2000/svg" width="68px" height="70px" viewBox="0 0 680 700" preserveAspectRatio="xMidYMid meet">
<g id="layer101" fill="#c289ff" stroke="none">
 <path d="M25 675 l-25 -24 0 -271 0 -271 25 -24 c15 -16 36 -25 55 -25 27 0 30 3 30 29 0 34 30 61 67 61 30 0 63 -34 63 -65 0 -25 0 -25 95 -25 95 0 95 0 95 25 0 32 33 65 65 65 32 0 65 -33 65 -65 0 -22 4 -25 35 -25 25 0 44 8 60 25 l25 24 0 271 0 271 -25 24 -24 25 -291 0 -291 0 -24 -25z m593 -37 c9 -9 12 -69 12 -210 l0 -198 -295 0 -295 0 0 188 c0 154 3 192 16 210 15 22 18 22 283 22 194 0 270 -3 279 -12z"/>
 <path d="M127 583 c-4 -3 -7 -19 -7 -35 l0 -28 139 0 c127 0 140 2 146 19 3 10 3 26 -1 35 -5 14 -25 16 -138 16 -73 0 -136 -3 -139 -7z"/>
 <path d="M120 445 l0 -35 218 2 217 3 0 30 0 30 -217 3 -218 2 0 -35z"/>
 <path d="M120 335 l0 -35 218 2 217 3 0 30 0 30 -217 3 -218 2 0 -35z"/>
 <path d="M134 106 c-3 -7 -4 -33 -2 -57 3 -43 4 -44 41 -47 l37 -3 0 60 0 61 -35 0 c-21 0 -38 -6 -41 -14z"/>
 <path d="M456 104 c-3 -9 -6 -28 -6 -44 0 -47 9 -60 45 -60 36 0 45 13 45 60 0 47 -9 60 -45 60 -21 0 -35 -6 -39 -16z"/>
 </g>

</svg>